<?xml version="1.0" encoding="UTF-8" standalone="no"?>
<!-- Created with Inkscape (http://www.inkscape.org/) -->

<svg
   width="120"
   height="120"
   viewBox="0 0 120 120"
   version="1.1"
   id="svg1"
   xmlns="http://www.w3.org/2000/svg"
   xmlns:svg="http://www.w3.org/2000/svg">
  <defs
     id="defs1" />
  <g
     id="layer1">
    <path
       id="path34"
       style="color:#000000;fill:#000000;stroke-width:1;stroke-linecap:round;stroke-linejoin:round;stroke-miterlimit:0;-inkscape-stroke:none"
       d="m 17.360707,8.1810275 c -0.797169,0 -1.440136,0.642966 -1.440136,1.440135 v 3.8097685 c 10e-7,0.797171 0.642967,1.440136 1.440136,1.440136 h 1.68957 v 23.8893 2.882623 L 1.4956886,56.477322 a 4.2168662,4.2168662 0 0 0 -0.49887002,5.944087 4.2168662,4.2168662 0 0 0 5.94173302,0.49887 L 60,18.08078 l 53.06146,44.8395 a 4.2168662,4.2168662 0 0 0 5.94173,-0.49887 4.2168662,4.2168662 0 0 0 -0.49888,-5.944087 L 62.722609,9.3387825 a 4.2172878,4.2172878 0 0 0 -5.445217,0 L 31.345548,31.251426 V 14.871067 h 1.689571 c 0.797168,0 1.440134,-0.642965 1.440134,-1.440136 V 9.6211625 c 0,-0.797169 -0.642966,-1.440135 -1.440134,-1.440135 z M 60,24.3849 13.360331,63.155596 v 24.039902 18.385252 c 0,3.45648 2.781753,6.23822 6.238233,6.23822 H 44.739745 V 85.534166 c 0,-2.798897 2.170511,-5.05224 4.866339,-5.05224 h 20.787833 c 2.695828,0 4.866339,2.253344 4.866339,5.05224 v 26.284804 h 25.141184 c 3.45648,0 6.23823,-2.78174 6.23823,-6.23822 V 87.195498 63.155596 Z" />
  </g>
</svg>
