<?xml version="1.0" encoding="UTF-8" standalone="no"?>
<!-- Created with Inkscape (http://www.inkscape.org/) -->

<svg
   width="120"
   height="120"
   viewBox="0 0 120 120"
   version="1.1"
   id="svg1"
   xml:space="preserve"
   xmlns="http://www.w3.org/2000/svg"
   xmlns:svg="http://www.w3.org/2000/svg"><defs
     id="defs1" /><g
     id="layer1"><path
       id="rect5"
       style="fill:#000000;stroke-width:6;stroke-linecap:round;stroke-linejoin:round;stroke-miterlimit:0"
       d="m 92.720639,0.00465713 c -0.235426,-0.00859 -0.474584,-0.005360002 -0.716492,0.010232 L 9.653666,5.3220494 C 5.783181,5.5714624 2.6678721,8.8877224 2.6678721,12.758208 v 82.350486 c 0,2.48189 1.2896959,4.55956 3.2293299,5.673076 l 17.067856,17.38259 c 0.04461,0.0435 0.08462,0.0909 0.130504,0.13307 l 0.299392,0.30451 a 3.2753905,3.2753905 0 0 0 0.46572,0.27636 c 0.180774,0.12159 0.36935,0.22696 0.562957,0.3301 a 3.2753905,3.2753905 0 0 0 0.53481,0.25589 c 0.920868,0.38614 1.942098,0.59259 3.037413,0.52201 l 82.350486,-5.30716 c 3.8705,-0.24941 6.98579,-3.56565 6.98579,-7.43615 V 24.892507 c 0,-2.026516 -0.8672,-3.776232 -2.23648,-4.961705 -0.15056,-0.197411 -0.29702,-0.393691 -0.46571,-0.588547 -0.50126,-0.578968 -1.16334,-1.284208 -1.97292,-2.123886 -1.61915,-1.679363 -3.79987,-3.8553 -6.00317,-6.026206 -4.40661,-4.3418206 -8.892182,-8.6516371 -8.892182,-8.6516371 a 3.2753905,3.2753905 0 0 0 -0.3173,-0.2328597 C 96.305888,0.95454223 94.643278,0.07480433 92.720639,0.00465713 Z M 91.763612,6.1971924 c 1.781606,-0.107904 2.930846,0.664785 3.986766,1.732374 l 9.537012,9.6444906 c 0.38132,0.385536 0.54256,0.754688 0.5169,1.074737 l -77.808437,5.015441 c -0.714807,0.04606 -1.391019,0.226296 -2.039443,0.46572 -1.296239,-0.27069 -2.564299,-0.834301 -3.27539,-1.553251 l -9.537016,-9.641931 c -1.055917,-1.067589 -0.47146,-2.015972 1.310156,-2.123887 z M 105.1441,24.774797 c 3.38155,-0.217905 6.10553,2.329911 6.10553,5.711462 v 71.946001 c 0,3.38155 -2.72398,6.28169 -6.10553,6.4996 l -71.946006,4.63672 c -3.381552,0.21791 -6.105533,-2.32991 -6.105533,-5.71146 V 35.911125 c 0,-3.381551 2.723981,-6.281699 6.105533,-6.499603 z m -8.994532,15.141005 -16.568875,1.067061 v 4.46016 l 6.031326,-0.388952 V 79.558262 L 57.013765,42.436317 42.192623,43.393346 v 4.46016 l 6.062031,-0.391511 v 46.113919 l -6.062031,0.39151 v 4.46016 l 16.568871,-1.06706 v -4.46016 l -6.031325,0.38895 V 57.973951 l 29.040943,37.902413 8.316421,-0.53481 v -50.57408 l 6.062035,-0.391511 z" /></g></svg>
