<?xml version="1.0" encoding="UTF-8" standalone="no"?>
<!-- Created with Inkscape (http://www.inkscape.org/) -->

<svg
   width="120"
   height="120"
   viewBox="0 0 120 120"
   version="1.1"
   id="svg1"
   xml:space="preserve"
   xmlns="http://www.w3.org/2000/svg"
   xmlns:svg="http://www.w3.org/2000/svg"><defs
     id="defs1" /><g
     id="layer1"><path
       id="path1"
       style="display:inline;fill:#000000;stroke:none;stroke-width:2.57204;stroke-linecap:round;stroke-linejoin:round;stroke-miterlimit:0;stroke-dasharray:none"
       d="M 76.161291,0 C 75.349488,0 74.696448,0.65499569 74.696448,1.4667969 V 12.689453 a 22.859532,22.859532 0 0 0 -4.494141,1.919922 L 62.225744,6.6308594 c -0.574032,-0.5740315 -1.498237,-0.5740315 -2.072265,0 l -7.021485,7.0214846 c -0.574032,0.574028 -0.574032,1.498234 0,2.072265 l 7.978516,7.976563 a 22.859532,22.859532 0 0 0 -1.919922,4.49414 H 47.967932 c -0.811799,0 -1.466797,0.653041 -1.466797,1.464844 v 9.929688 c 0,0.811803 0.654998,1.464844 1.466797,1.464844 h 11.222656 a 22.859532,22.859532 0 0 0 1.919922,4.49414 l -7.978516,7.978516 c -0.574032,0.574032 -0.574032,1.496283 0,2.070312 l 7.021485,7.021485 c 0.574028,0.574032 1.498233,0.574032 2.072265,0 l 7.976563,-7.978516 a 22.859532,22.859532 0 0 0 4.494141,1.919922 v 11.222656 c 0,0.811798 0.65304,1.466797 1.464843,1.466797 h 9.929688 c 0.811803,0 1.464844,-0.654999 1.464844,-1.466797 V 56.560547 a 22.859532,22.859532 0 0 0 4.49414,-1.919922 l 7.978517,7.978516 c 0.57403,0.574032 1.49628,0.574032 2.07031,0 l 7.02148,-7.021485 c 0.57404,-0.574029 0.57404,-1.49628 0,-2.070312 l -7.97851,-7.978516 a 22.859532,22.859532 0 0 0 1.91992,-4.49414 h 11.22461 c 0.81179,0 1.46484,-0.653041 1.46484,-1.464844 v -9.929688 c 0,-0.811803 -0.65305,-1.464844 -1.46484,-1.464844 h -11.22656 a 22.859532,22.859532 0 0 0 -1.87891,-4.533203 l 7.93945,-7.9375 c 0.57404,-0.574031 0.57404,-1.498237 0,-2.072265 l -7.02148,-7.0214846 c -0.57403,-0.5740315 -1.49628,-0.5740315 -2.07031,0 L 92.089026,14.570312 A 22.859532,22.859532 0 0 0 87.555823,12.691406 V 1.4667969 C 87.555823,0.65499569 86.902782,0 86.090979,0 Z m 4.964844,18.275391 A 16.3499,16.3499 0 0 1 97.475744,34.625 16.3499,16.3499 0 0 1 81.126135,50.974609 16.3499,16.3499 0 0 1 64.776526,34.625 16.3499,16.3499 0 0 1 81.126135,18.275391 Z m 0.002,2.388671 a 5.9453924,5.9453924 0 0 0 -5.947265,5.945313 5.9453924,5.9453924 0 0 0 5.947265,5.945313 5.9453924,5.9453924 0 0 0 5.94336,-5.945313 5.9453924,5.9453924 0 0 0 -5.94336,-5.945313 z m 0,12.619141 c -4.176058,0 -7.539062,3.3611 -7.539062,7.537109 v 5.773438 c 2.279873,1.266552 4.902847,1.994128 7.699218,1.994141 2.665939,-1.2e-5 5.172771,-0.663669 7.376954,-1.822266 v -5.945313 c 0,-4.176009 -3.361101,-7.537109 -7.53711,-7.537109 z m -38.15039,36.861328 c -0.0973,2.78e-4 -0.194306,0.0031 -0.291016,0.01367 a 1.0001,1.0001 0 0 0 -0.04883,0.0059 c -0.25319,0.04021 -0.500112,0.116177 -0.732422,0.22461 -0.0311,0.01171 -0.06315,0.02038 -0.09375,0.0332 -0.007,0.0027 -0.01283,0.0051 -0.01953,0.0078 a 1.0001,1.0001 0 0 0 -0.121094,0.05859 L 21.883948,81.912109 21.032385,80.435547 C 19.459797,77.711757 15.922198,76.763355 13.1984,78.335938 L 7.1085566,81.853516 C 4.3847593,83.426097 3.4363688,86.963711 5.0089472,89.6875 L 20.86051,117.14062 c 1.572579,2.7238 5.108244,3.67219 7.832031,2.09961 l 6.091797,-3.51757 c 2.723798,-1.57259 3.670235,-5.10825 2.097656,-7.83204 l -0.984374,-1.70703 1.601562,-1.1289 21.519531,6.58008 c 0.11951,0.0369 0.241835,0.0637 0.365235,0.084 0.0349,0.007 4.420654,0.93097 8.30664,-0.53906 1.722579,-0.65163 3.81772,-1.84751 5.642578,-2.91602 1.000469,-0.58569 1.815096,-1.0826 2.421875,-1.45703 l 0.02539,-0.0156 31.507809,-18.189458 0.0117,-0.0078 c 0.0736,-0.0416 0.14539,-0.08656 0.21484,-0.134766 l 0.002,-0.002 c 3.38084,-2.33588 4.82216,-5.803199 4.27148,-8.892578 -0.13497,-0.757178 -0.37193,-1.479703 -0.69336,-2.152344 -0.12028,-0.251801 -0.25105,-0.496713 -0.39453,-0.734375 -1.00382,-1.66243 -2.54486,-2.952695 -4.35156,-3.673828 -4.94434,-1.973507 -9.193409,0.71848 -9.699218,1.052735 l 0.05078,-0.0332 -23.369141,13.49414 c 0.5943,-1.379182 0.745316,-2.817433 0.447266,-4.072266 -0.3166,-1.332936 -0.99778,-2.376765 -1.667969,-3.160156 -1.341829,-1.568463 -2.919927,-2.393332 -2.929687,-2.398437 -0.16533,-0.09012 -0.339282,-0.164212 -0.519532,-0.21875 a 1.0001,1.0001 0 0 0 -0.0039,0 L 43.83512,70.234375 a 1.0001,1.0001 0 0 0 -0.15625,-0.0332 c -0.0648,-0.0085 -0.130113,-0.01371 -0.195313,-0.01758 l 0.154297,0.02148 c -0.21656,-0.04708 -0.438657,-0.06661 -0.660156,-0.06055 z m 0.417968,5.699219 23.263672,6.966797 c 0.16023,0.09429 0.748212,0.441403 1.269532,1.050781 0.278689,0.325754 0.454846,0.673594 0.498046,0.855469 0.065,0.273855 0.10017,0.255927 -0.125,0.705078 -0.432929,0.863541 -1.367777,1.433852 -2.347656,1.771484 -0.945239,0.325703 -1.821298,0.403431 -2.080078,0.421875 -0.33084,-0.05479 -0.611691,-0.09903 -0.962891,-0.158203 -2.324177,-0.391581 -4.68553,-0.800536 -6.517578,-1.142578 -0.915659,-0.170955 -1.699879,-0.327155 -2.261719,-0.449219 -0.235679,-0.0512 -0.500617,-0.130503 -0.679687,-0.183593 -0.0448,-0.01327 -0.0826,-0.02314 -0.126953,-0.03516 -0.0222,-0.006 -0.04473,-0.01339 -0.08203,-0.02148 -0.0373,-0.0081 -0.0272,-0.03664 -0.28125,-0.02344 -0.0318,0.0017 -0.120784,0.01362 -0.121094,0.01367 -3.1e-4,5.4e-5 -0.19313,0.0546 -0.193359,0.05469 -5e-5,2e-5 -0.04541,0.02762 -0.07031,0.04297 -1.098019,-0.07339 -2.195634,0.311288 -2.689453,1.359375 -0.642289,1.3632 -0.0468,3.015914 1.316406,3.658203 a 1.0001,1.0001 0 0 0 0,0.002 c 0.756129,0.355882 1.186916,0.383358 1.759766,0.507812 0.654969,0.142295 1.476286,0.301975 2.421875,0.478516 1.891608,0.353165 4.27008,0.765698 6.611328,1.160156 4.682495,0.788919 9.207031,1.507813 9.207031,1.507813 a 1.0001,1.0001 0 0 0 0.0059,0 c 0.251949,0.03882 0.506815,0.04144 0.759765,0.0098 a 1.0001,1.0001 0 0 0 0.0098,0 c 0.0118,-0.0016 0.02336,-0.0041 0.03516,-0.0059 0.28055,-0.03876 0.548075,-0.132109 0.802734,-0.253906 l 0.0039,-0.002 c 0.004,-9.07e-4 0.008,-6.58e-4 0.01172,-0.002 a 1.0001,1.0001 0 0 0 0.113282,-0.05273 c 0.0139,-0.0075 0.02917,-0.01174 0.04297,-0.01953 a 1.0001,1.0001 0 0 0 0.02148,-0.0098 L 99.481725,78.76945 a 1.0001,1.0001 0 0 0 0.03516,-0.02148 c 0.0107,-0.0068 0.02065,-0.01457 0.03125,-0.02148 l 0.0078,-0.0039 c 0.0255,-0.01535 0.04922,-0.03073 0.07422,-0.04687 a 1.0001,1.0001 0 0 0 0.0078,-0.0039 c 0,0 2.352195,-1.487214 4.673825,-0.560547 0.67949,0.271223 1.34267,0.861612 1.72266,1.519531 0.17242,0.298513 0.28814,0.608369 0.33984,0.898438 0.0924,0.518158 0.0738,0.974312 -0.17188,1.503906 -0.24427,0.526469 -0.75611,1.156067 -1.76171,1.861328 L 73.99137,101.47461 c -0.0507,0.0192 -0.102894,0.0344 -0.152344,0.0566 a 1.0001,1.0001 0 0 0 -0.123047,0.0664 c 0,0 -0.359351,0.22533 -0.78125,0.48632 l -5.130859,2.9629 a 1.0001,1.0001 0 0 0 -0.01563,0.0117 c -0.843659,0.44372 -1.619039,0.81619 -2.042968,0.97657 -0.71919,0.27206 -2.114261,0.38744 -3.28125,0.375 -1.130419,-0.0121 -2.005362,-0.10753 -2.113282,-0.11914 L 37.817541,99.402344 c -0.811419,-0.247676 -1.693299,-0.105991 -2.386718,0.382812 l -2.294922,1.615234 -8.501953,-14.724609 z m -27.205078,6.777344 c 0.17219,0.0234 0.317792,0.141361 0.441406,0.355468 l 15.84961,27.455078 c 0.21975,0.38061 0.142348,0.67088 -0.238281,0.89063 l -6.091797,3.51562 c -0.38064,0.21976 -0.670865,0.14236 -0.890625,-0.23828 L 9.4093378,87.146484 C 9.1895781,86.76585 9.2689426,86.473667 9.6495722,86.253906 l 6.0898438,-3.515625 c 0.0952,-0.05494 0.185182,-0.09168 0.269532,-0.109375 0.06327,-0.01328 0.124244,-0.01561 0.18164,-0.0078 z m -0.630859,2.677734 c -0.19443,-0.0046 -0.389375,0.0055 -0.583985,0.0293 -0.518959,0.06338 -1.032949,0.229272 -1.511719,0.505859 -1.914108,1.10607 -2.576562,3.581872 -1.470703,5.496094 a 1.0001,1.0001 0 0 0 0,0.002 c 1.105579,1.913243 3.582016,2.574834 5.496094,1.470703 1.914808,-1.104834 2.579229,-3.581159 1.47461,-5.496093 -0.72538,-1.25716 -2.043268,-1.975462 -3.404297,-2.007813 z m 38.001953,0.476563 c 0.0154,0.0033 0.0148,-0.01371 0.136719,0.101562 0.0202,0.01914 0.07442,0.07644 0.07422,0.07617 -2.2e-4,-2.64e-4 0.101702,0.142806 0.101562,0.142578 -1.3e-4,-2.27e-4 0.113321,0.289255 0.113281,0.289063 -10e-6,-6e-6 3e-5,0.01469 0,0.01563 a 1.0001,1.0001 0 0 0 -0.425781,-0.625 z" /></g></svg>
