<?xml version="1.0" encoding="UTF-8" standalone="no"?>
<!-- Created with Inkscape (http://www.inkscape.org/) -->

<svg
   width="120"
   height="120"
   viewBox="0 0 120 120"
   version="1.1"
   id="svg1"
   xml:space="preserve"
   xmlns="http://www.w3.org/2000/svg"
   xmlns:svg="http://www.w3.org/2000/svg"><defs
     id="defs1" /><g
     id="layer2"><path
       id="path21"
       style="opacity:1;fill:#000000;fill-opacity:1;stroke-width:3;stroke-linecap:round;stroke-linejoin:round;stroke-miterlimit:0"
       d="M 60.000002,-1.87e-6 A 60,60 0 0 0 1.885e-6,59.999998 60,60 0 0 0 60.000002,120 60,60 0 0 0 120,59.999998 60,60 0 0 0 60.000002,-1.87e-6 Z M 60.144533,26.832029 c 2.047998,0 3.775595,0.735033 5.183594,2.207031 1.471999,1.471999 2.207031,3.233253 2.207031,5.28125 0,2.111998 -0.735032,3.871299 -2.207031,5.279297 -1.407999,1.407999 -3.167299,2.113282 -5.279297,2.113282 -2.111998,0 -3.873251,-0.705283 -5.28125,-2.113282 -1.407998,-1.407998 -2.111328,-3.199002 -2.111328,-5.375 0,-2.047998 0.735033,-3.777548 2.207031,-5.185547 1.471999,-1.471998 3.233252,-2.207031 5.28125,-2.207031 z m -11.71289,22.080078 h 18.43164 v 36.480469 c 0,1.791998 0.352642,3.103548 1.056641,3.935547 0.703999,0.767999 1.920439,1.279157 3.648437,1.535156 v 2.304688 H 48.431643 v -2.304688 c 2.175997,-0.511999 3.552906,-1.086563 4.128906,-1.726562 0.639999,-0.704 0.958984,-2.049205 0.958984,-4.033203 V 56.880857 c 0,-1.983998 -0.318985,-3.2975 -0.958984,-3.9375 -0.639999,-0.703999 -2.016908,-1.278563 -4.128906,-1.726562 z" /></g></svg>
