<?xml version="1.0" encoding="UTF-8" standalone="no"?>
<!-- Created with Inkscape (http://www.inkscape.org/) -->

<svg
   width="300"
   height="400"
   viewBox="0 0 88.528748 133.43079"
   version="1.1"
   id="svg1"
   xml:space="preserve"
   xmlns="http://www.w3.org/2000/svg"
   xmlns:svg="http://www.w3.org/2000/svg"><defs
     id="defs1" /><g
     id="layer1"
     transform="translate(-990.83319,-82.377975)"><g
       id="g260"><g
         id="g257"
         transform="matrix(0.73997331,0,0,0.73997331,773.42158,109.36635)"
         style="stroke-width:1.3514"><g
           id="g255"
           style="stroke-width:1.3514"><g
             id="g55"
             transform="translate(-54.665297,-150.56633)"
             style="stroke-width:1.3514"><path
               id="path48"
               style="fill:#b200b2;fill-opacity:1;stroke-width:2.62413;stroke-linecap:round;stroke-linejoin:round;stroke-miterlimit:0;stroke-dasharray:none"
               d="m 433.08789,112.98633 -0.0549,0.16954 -0.0549,0.16954 -0.0549,0.16954 -0.0549,0.16955 c -0.0294,0.0908 -9.20652,19.18355 -16.34983,30.20489 -7.14331,11.02134 -20.85213,25.976 -34.05867,45.98319 -17.63535,26.7166 -14.90645,88.19308 50.62811,92.84273 v -84.85449 -42.42724 z m 0,0 0.0549,0.16954 0.0549,0.16954 0.0549,0.16954 0.0549,0.16955 c 0.0294,0.0908 9.20652,19.18355 16.34983,30.20489 7.14331,11.02134 20.85213,25.976 34.05867,45.98319 17.63535,26.7166 14.90645,88.19308 -50.62811,92.84273 v -84.85449 -42.42724 z"
               transform="matrix(0.99843096,0,0,1.0625152,-24.114143,-5.9554558)" /><path
               id="path44"
               style="fill:#590059;fill-opacity:1;stroke-width:2.70278;stroke-linecap:round;stroke-linejoin:round;stroke-miterlimit:0;stroke-dasharray:none"
               d="m 463.7956,206.19385 c 7.68575,31.63448 -4.37369,66.27016 -54.7416,76.78059 -31.65354,2.16467 -51.4698,-14.6151 -58.57676,-34.23566 5.39005,22.62589 22.41017,42.99935 57.83202,45.67383 58.33886,-4.40479 66.81116,-56.78956 55.48634,-88.21876 z" /><path
               id="path52"
               style="fill:#ffffff;fill-opacity:1;stroke-width:14.8471;stroke-linecap:round;stroke-linejoin:round;stroke-miterlimit:0;stroke-dasharray:none"
               d="m 433.0831,112.98765 -0.0534,0.16694 -0.0447,0.17205 -0.0534,0.16695 -0.0703,0.17025 c -0.0294,0.0908 -9.19263,19.18538 -16.33594,30.20671 -7.1433,11.02133 -20.15699,38.08473 -33.36351,58.0919 -17.63534,26.71658 -15.60048,76.08398 49.93401,80.73362 65.53449,-4.64964 67.54941,-54.01592 49.91408,-80.7325 -13.20653,-20.00717 -26.20909,-47.07141 -33.35239,-58.09273 -7.14331,-11.02133 -16.31531,-30.11593 -16.34471,-30.20673 l -0.066,-0.17084 -0.0404,-0.16904 -0.066,-0.17084 z m -10.06678,182.67408 c -26.16363,4.98613 -25.42944,17.65348 -10.50805,33.18548 10.72082,11.1597 43.20696,24.03656 65.25849,26.19909 22.05152,2.16254 57.0262,-3.04694 39.75087,-15.29724 -34.55058,-24.50054 -51.09365,-48.99929 -85.52767,-45.3841 -3.29658,0.3461 -6.26705,0.78097 -8.97364,1.29677 z"
               transform="matrix(0.08659805,0.05605851,-0.14778986,0.2870115,372.26973,107.06466)" /></g></g></g></g></g></svg>