<?xml version="1.0" encoding="UTF-8" standalone="no"?>
<!-- Created with Inkscape (http://www.inkscape.org/) -->

<svg
   width="1302.9189"
   height="553.6637"
   viewBox="0 0 1302.9189 553.6637"
   version="1.1"
   id="svg1"
   xml:space="preserve"
   xmlns:xlink="http://www.w3.org/1999/xlink"
   xmlns="http://www.w3.org/2000/svg"
   xmlns:svg="http://www.w3.org/2000/svg"><defs
     id="defs1"><linearGradient
       id="linearGradient116"><stop
         style="stop-color:#7f007f;stop-opacity:1;"
         offset="0.00670318"
         id="stop116" /><stop
         style="stop-color:#f37b3f;stop-opacity:0.63768214;"
         offset="1"
         id="stop117" /></linearGradient><linearGradient
       id="linearGradient10"><stop
         style="stop-color:#800080;stop-opacity:1;"
         offset="0"
         id="stop11" /><stop
         style="stop-color:#e6560f;stop-opacity:1;"
         offset="1"
         id="stop12" /></linearGradient><linearGradient
       xlink:href="#linearGradient10"
       id="linearGradient12"
       x1="944.36121"
       y1="177.06483"
       x2="948.77905"
       y2="542.93518"
       gradientUnits="userSpaceOnUse"
       gradientTransform="matrix(1.4097947,0,0,1.4097947,-919.24935,-139.88876)" /><radialGradient
       xlink:href="#linearGradient116"
       id="radialGradient117"
       cx="365.5593"
       cy="553.79297"
       fx="365.5593"
       fy="553.79297"
       r="108.08086"
       gradientTransform="matrix(0.97145074,0,0,0.18704935,10.436446,452.43517)"
       gradientUnits="userSpaceOnUse" /><filter
       style="color-interpolation-filters:sRGB"
       id="filter117"
       x="-0.019077793"
       y="-0.10698017"
       width="1.0381556"
       height="1.2139603"><feGaussianBlur
         stdDeviation="1.6635559"
         id="feGaussianBlur117" /></filter><linearGradient
       xlink:href="#linearGradient10"
       id="linearGradient259"
       gradientUnits="userSpaceOnUse"
       gradientTransform="matrix(1.4097947,0,0,1.4097947,-919.24935,-139.88876)"
       x1="944.36121"
       y1="177.06483"
       x2="948.77905"
       y2="542.93518" /><linearGradient
       xlink:href="#linearGradient10"
       id="linearGradient260"
       gradientUnits="userSpaceOnUse"
       gradientTransform="matrix(1.4097947,0,0,1.4097947,-919.24935,-139.88876)"
       x1="944.36121"
       y1="177.06483"
       x2="948.77905"
       y2="542.93518" /></defs><g
     id="layer1"
     transform="translate(-20.284389,-59.236126)"><g
       id="g260"><g
         id="g304"><g
           id="g262"><g
             id="text1"
             style="font-weight:bold;font-size:308.276px;line-height:0.9;font-family:FreeSerif;-inkscape-font-specification:'FreeSerif Bold';letter-spacing:-6.47096px;word-spacing:0px;fill:url(#linearGradient12);stroke-width:2.00001;stroke-linecap:round;stroke-linejoin:round;stroke-miterlimit:0"
             aria-label="Colors&#10;Drop"
             transform="translate(-112.30213,-35.933145)"><path
               d="m 253.73899,299.24798 q 20.34621,0 36.99312,-9.86483 16.6469,-9.86483 33.91036,-28.05311 l 9.24828,7.7069 -4.00759,4.62414 q -4.00759,4.31586 -5.24069,5.54896 -0.92483,0.92483 -5.54897,5.54897 -4.31587,4.31587 -6.78207,6.16552 -2.46621,1.84966 -7.7069,5.85725 -5.2407,3.69931 -9.24828,5.54896 -3.69932,1.84966 -9.86484,4.62414 -6.16552,2.46621 -12.02276,3.69932 -5.54897,1.54138 -12.63932,2.4662 -7.09034,0.92483 -14.48897,0.92483 -47.78278,0 -78.61038,-30.51932 -30.51932,-30.51933 -30.51932,-77.99383 0,-47.16623 30.51932,-78.61038 30.8276,-31.752428 76.76073,-31.752428 14.48897,0 27.12828,4.007588 12.9476,3.69931 21.57932,7.39862 8.63173,3.69932 13.25587,3.69932 4.31587,0 7.39863,-3.08276 3.08276,-3.08276 6.16552,-11.09794 h 8.32345 v 72.13658 h -7.7069 q -3.08276,-6.78207 -6.4738,-12.63931 -3.39103,-6.16552 -10.48138,-16.03035 -7.09035,-9.86484 -14.48897,-16.64691 -7.39863,-7.09035 -18.49656,-12.33104 -10.78966,-5.24069 -22.19588,-5.24069 -27.74484,0 -42.23381,24.97036 -14.48897,24.97035 -14.48897,72.75313 0,96.18211 61.96348,96.18211 z M 415.58677,162.37344 q 29.90277,0 49.63244,21.57932 19.72966,21.27104 19.72966,53.64002 0,32.06071 -19.72966,53.64003 -19.72967,21.27104 -49.63244,21.27104 -30.21105,0 -49.94071,-21.27104 -19.72966,-21.57932 -19.72966,-54.56485 0,-31.44416 20.03794,-52.7152 20.34621,-21.57932 49.63243,-21.57932 z m 0.30828,9.55656 q -14.1807,0 -19.42139,14.79724 -5.24069,14.79725 -5.24069,55.48968 0,33.91036 5.24069,47.47451 5.54897,13.25587 19.11311,13.25587 13.56415,0 18.80484,-13.87242 5.24069,-14.1807 5.24069,-49.63244 0,-37.91795 -5.24069,-52.7152 Q 429.15092,171.93 415.89505,171.93 Z M 547.83977,99.793412 V 282.2928 q 0,18.18829 15.10553,18.49656 v 7.39863 h -74.29452 v -7.39863 q 16.33863,-1.54138 16.33863,-18.49656 V 125.07204 q 0,-16.33862 -16.33863,-17.88 v -7.398628 z m 88.47813,62.580028 q 29.90277,0 49.63243,21.57932 19.72967,21.27104 19.72967,53.64002 0,32.06071 -19.72967,53.64003 -19.72966,21.27104 -49.63243,21.27104 -30.21105,0 -49.94072,-21.27104 -19.72966,-21.57932 -19.72966,-54.56485 0,-31.44416 20.03794,-52.7152 20.34622,-21.57932 49.63244,-21.57932 z m 0.30827,9.55656 q -14.18069,0 -19.42139,14.79724 -5.24069,14.79725 -5.24069,55.48968 0,33.91036 5.24069,47.47451 5.54897,13.25587 19.11312,13.25587 13.56414,0 18.80483,-13.87242 5.24069,-14.1807 5.24069,-49.63244 0,-37.91795 -5.24069,-52.7152 Q 649.88204,171.93 636.62617,171.93 Z m 177.87784,35.14346 q -7.09035,0 -12.63932,-4.62414 -5.24069,-4.62414 -8.63173,-8.94 -3.39103,-4.62414 -5.85724,-4.62414 -7.7069,0 -13.25587,8.63172 -5.54897,8.63173 -5.54897,20.6545 v 58.26416 q 0,14.48897 4.00759,19.11311 4.31587,4.31587 18.49656,5.24069 v 7.39863 h -81.69314 v -7.39863 q 10.17311,-1.84965 13.25587,-5.24069 3.08276,-3.69931 3.08276,-13.25587 v -90.63314 q 0,-9.24828 -3.39104,-12.94759 -3.08276,-4.00759 -12.94759,-5.24069 v -7.39863 h 57.95589 v 25.27863 q 10.78966,-15.4138 20.34622,-22.19587 9.86483,-6.78207 21.27104,-6.78207 10.78966,0 17.88001,6.78207 7.09035,6.78207 7.09035,17.26346 0,8.94 -5.54897,14.79725 -5.24069,5.85724 -13.87242,5.85724 z m 74.29736,-44.70002 q 8.63173,0 20.03794,3.39104 11.40621,3.39103 13.87242,3.39103 4.93242,0 7.39863,-6.16552 h 6.78207 v 44.70002 h -7.7069 q -12.02277,-35.14346 -37.60968,-35.14346 -8.63172,0 -14.48897,5.24069 -5.85724,4.93242 -5.85724,12.63932 0,7.09034 5.24069,12.94759 5.54897,5.54897 13.56414,8.94 8.01518,3.39104 17.26346,8.32345 9.24828,4.62414 17.26346,9.86484 8.01517,4.93241 13.25587,14.18069 5.54896,8.94001 5.54896,20.96277 0,20.65449 -13.25586,33.91036 -13.25587,12.94759 -34.21864,12.94759 -12.63932,0 -25.58691,-4.31586 -12.94759,-4.62414 -14.79725,-4.62414 -3.39103,0 -8.01517,8.63173 h -7.7069 v -50.86554 h 8.63172 q 9.86484,40.69243 42.23382,40.69243 10.48138,0 16.6469,-5.54897 6.4738,-5.54897 6.4738,-14.48897 0,-8.01518 -7.7069,-14.1807 -7.39863,-6.16552 -18.18829,-11.09793 -10.78966,-4.93242 -21.57932,-10.48139 -10.78966,-5.85724 -18.49656,-15.72207 -7.39862,-9.86484 -7.39862,-23.1207 0,-19.42139 13.56414,-32.06071 13.87242,-12.94759 34.83519,-12.94759 z"
               id="path258"
               style="fill:url(#linearGradient259)" /><path
               d="M 158.17343,557.58327 V 405.6032 q 0,-10.48139 -5.54897,-14.79725 -5.24069,-4.31586 -20.03794,-5.85724 v -7.7069 h 94.02418 q 53.33175,0 83.85107,27.12828 30.51932,27.12829 30.51932,74.91107 0,47.78278 -30.51932,77.069 -30.51932,29.28622 -80.46004,29.28622 h -97.41521 v -7.7069 q 13.25587,-0.30827 19.42139,-5.24069 6.16552,-4.93242 6.16552,-15.10552 z M 287.34107,483.9053 q 0,-27.12829 -5.54897,-46.85795 -5.54897,-19.72966 -14.79725,-29.90277 -9.24828,-10.17311 -19.42138,-14.79725 -9.86484,-4.62414 -21.27105,-4.62414 -18.18828,0 -18.18828,10.78966 v 158.45386 q 0,10.48139 3.69931,14.1807 3.69931,3.69931 14.1807,3.69931 61.34692,0 61.34692,-90.94142 z m 168.63009,0.61655 q -7.09035,0 -12.63932,-4.62414 -5.24069,-4.62414 -8.63173,-8.94 -3.39103,-4.62414 -5.85724,-4.62414 -7.7069,0 -13.25587,8.63173 -5.54897,8.63173 -5.54897,20.65449 v 58.26416 q 0,14.48898 4.00759,19.11312 4.31586,4.31586 18.49656,5.24069 v 7.39862 h -81.69314 v -7.39862 q 10.17311,-1.84966 13.25587,-5.24069 3.08276,-3.69932 3.08276,-13.25587 v -90.63315 q 0,-9.24828 -3.39104,-12.94759 -3.08276,-4.00759 -12.94759,-5.24069 v -7.39862 h 57.95589 v 25.27863 q 10.78966,-15.4138 20.34621,-22.19587 9.86484,-6.78208 21.27105,-6.78208 10.78966,0 17.88001,6.78208 7.09034,6.78207 7.09034,17.26345 0,8.94001 -5.54896,14.79725 -5.2407,5.85724 -13.87242,5.85724 z m 88.78628,-44.70002 q 29.90277,0 49.63244,21.57932 19.72966,21.27105 19.72966,53.64003 0,32.0607 -19.72966,53.64002 -19.72967,21.27105 -49.63244,21.27105 -30.21105,0 -49.94071,-21.27105 -19.72966,-21.57932 -19.72966,-54.56485 0,-31.44415 20.03794,-52.7152 20.34621,-21.57932 49.63243,-21.57932 z m 0.30828,9.55656 q -14.1807,0 -19.42139,14.79725 -5.24069,14.79725 -5.24069,55.48968 0,33.91036 5.24069,47.4745 5.54897,13.25587 19.11311,13.25587 13.56415,0 18.80484,-13.87242 5.24069,-14.1807 5.24069,-49.63244 0,-37.91794 -5.24069,-52.71519 -5.24069,-14.79725 -18.49656,-14.79725 z m 131.32816,-5.85724 v 21.27104 q 7.09034,-13.25587 16.03035,-19.11311 9.24828,-5.85725 22.81242,-5.85725 25.58691,0 41.30899,20.03794 16.03035,20.03794 16.03035,52.09865 0,34.21863 -16.6469,56.10623 -16.64691,21.57932 -42.54209,21.57932 -10.17311,0 -17.88001,-4.00759 -7.39863,-3.69931 -18.49656,-14.48897 v 43.46692 q 0,15.4138 4.93241,21.27104 4.93242,5.85724 19.11312,6.4738 v 6.47379 h -84.15935 v -7.39862 q 11.09793,-1.84966 14.18069,-5.24069 3.08276,-3.08276 3.08276,-12.63932 V 469.10805 q 0,-9.55655 -3.39103,-12.94759 -3.08276,-3.69931 -13.25587,-5.24069 v -7.39862 z m 27.12828,13.87242 q -9.86483,0 -18.18828,8.63172 -8.32345,8.32346 -8.32345,12.9476 v 74.91106 q 7.39862,18.80484 23.73725,18.80484 26.20346,0 26.20346,-56.41451 0,-58.88071 -23.42898,-58.88071 z"
               id="path259"
               style="fill:url(#linearGradient260)" /></g><g
             id="g257"
             transform="matrix(0.73997331,0,0,0.73997331,772.68534,86.224502)"
             style="stroke-width:1.3514"><g
               id="g256"
               style="stroke-width:1.3514"><path
                 id="path2"
                 style="fill:#f37b3f;stroke-width:2.7028;stroke-linecap:round;stroke-linejoin:round;stroke-miterlimit:0"
                 d="M 743.97012,587.46588 A 432.50534,114.98312 0 0 1 311.46478,702.44901 432.50534,114.98312 0 0 1 -121.04056,587.46588 432.50534,114.98312 0 0 1 311.46478,472.48276 432.50534,114.98312 0 0 1 743.97012,587.46588 Z" /><path
                 id="path97"
                 style="fill:#e6560f;fill-opacity:1;fill-rule:nonzero;stroke:none;stroke-width:2.7028;stroke-linecap:round;stroke-linejoin:round;stroke-miterlimit:0"
                 d="m -1085.1015,627.9628 c -1.4364,-0.67799 -3.8635,-2.10759 -8.5832,-4.15357 -5.619,-2.43582 -18.9514,-7.92946 -33.1704,-14.9167 -11.8525,-5.82437 -24.654,-12.8224 -36.072,-20.69043 -10.3882,-7.1584 -18.7012,-14.40231 -24.2918,-21.47506 -2.8269,-3.57638 -4.7799,-6.88543 -6.0276,-9.91541 -1.336,-3.24419 -1.8308,-6.08466 -1.8247,-8.59377 6e-4,-0.41741 0.011,-0.83173 0.03,-1.24302 0.2055,-4.42342 1.5261,-9.37153 4.769,-14.82229 3.1765,-5.33917 8.1572,-11.08483 15.5044,-17.08468 6.958,-5.68206 15.7865,-11.38519 26.605,-17.00365 10.7119,-5.56312 23.0778,-10.88912 36.9613,-15.92381 30.3626,-11.01069 65.4935,-19.74119 101.6099,-26.55481 62.21987,-11.73823 120.34805,-16.30323 130.17282,-18.32479 2.13711,-0.43973 2.58379,-0.95285 3.10212,-1.14285 -0.53279,-0.12529 -1.04558,-0.58482 -3.2205,-0.75517 -9.66894,-0.75735 -68.20208,1.28535 -131.60684,11.23091 -36.556,5.73413 -72.6177,13.69971 -104.0059,24.22416 -14.3898,4.82491 -27.4095,10.0592 -38.8516,15.67063 -11.5421,5.66046 -21.33,11.63118 -29.3114,17.86964 -8.4221,6.58289 -14.7595,13.40611 -19.0904,20.42409 -4.4918,7.27862 -6.671,14.52107 -7.0046,21.51426 -0.03,0.63571 -0.046,1.27623 -0.045,1.92136 0.01,4.74542 1.1482,9.55848 3.4215,14.34083 2.0898,4.39639 5.0739,8.6413 8.8052,12.73136 7.2732,7.97253 17.3183,15.27836 28.7,21.81736 12.6181,7.24936 26.4477,13.30879 38.9647,18.03757 15.4443,5.83465 28.704,9.57323 35.051,11.12356 4.9041,1.19791 7.9677,1.44988 9.4093,1.69428 z"
                 transform="translate(1088.716,39.925721)" /><path
                 style="opacity:1;fill:#e6560f;fill-opacity:1;fill-rule:nonzero;stroke:none;stroke-width:2.0271;stroke-linecap:round;stroke-linejoin:round;stroke-miterlimit:0;stroke-dasharray:none;stroke-opacity:1"
                 d="m 242.06269,556.28429 c 0.0288,-0.0504 0.11301,-0.22317 -0.33792,-0.65173 -0.28005,-0.26617 -0.60834,-0.53314 -1.40159,-1.20049 -0.80327,-0.67578 -2.4907,-2.09793 -3.99413,-3.77179 -0.64356,-0.71652 -1.29698,-1.52489 -1.86657,-2.39353 -0.52595,-0.80209 -0.97922,-1.65381 -1.28658,-2.5282 -0.28775,-0.81859 -0.44307,-1.64646 -0.41957,-2.46166 0.0222,-0.76873 0.20254,-1.55018 0.60477,-2.34567 0.38817,-0.76769 1.00632,-1.59441 1.96828,-2.45776 0.93672,-0.84068 2.20516,-1.72097 3.91278,-2.61132 3.31385,-1.72783 8.22263,-3.46311 15.41873,-5.0227 7.00962,-1.51918 16.12,-2.85685 27.90971,-3.86944 11.70862,-1.00562 25.95511,-1.68169 43.22466,-1.91018 35.5598,-0.47068 65.39715,0.0935 89.65102,1.24499 25.12626,1.19287 43.77043,2.98908 57.08852,4.8467 1.0131,0.14131 2.00866,0.28482 2.98609,0.4305 7.24754,1.08025 13.41801,2.26866 18.30479,3.54177 2.35161,0.61264 4.36702,1.23491 6.04006,1.85938 1.65656,0.61831 2.90635,1.21253 3.79815,1.76174 0.43748,0.26942 0.75616,0.50805 0.9843,0.7093 0.23035,0.20319 0.33085,0.33435 0.38017,0.39531 0.043,0.0532 0.0256,0.0166 0.0335,-0.0702 0.006,-0.0648 0.0412,-0.18158 0.0514,-0.1407 0.006,0.0231 -0.0347,0.13964 -0.19308,0.33563 -0.15866,0.19637 -0.41268,0.44449 -0.79259,0.73256 -0.76885,0.58296 -1.92571,1.23456 -3.53308,1.92337 -6.92353,3.08505 -12.62851,5.22427 -16.13055,6.52279 -3.87763,1.4378 -5.15766,1.9003 -6.18378,2.38877 -0.9636,0.45871 -0.97336,0.81874 -0.95246,0.94531 0.0189,0.11421 0.15508,0.486 1.25286,0.52431 0.84531,0.0295 2.88467,-0.043 6.74053,-0.79531 3.86228,-0.75362 9.73525,-2.23988 17.1464,-4.97863 1.83214,-0.71024 3.40448,-1.47722 4.64614,-2.32235 0.62544,-0.42571 1.20057,-0.89379 1.69184,-1.41412 0.49204,-0.52115 0.92745,-1.12397 1.2302,-1.81807 0.30906,-0.70858 0.4662,-1.48335 0.4203,-2.29478 -0.0458,-0.8089 -0.28742,-1.55493 -0.64532,-2.21804 -0.35443,-0.6567 -0.82294,-1.23382 -1.33958,-1.73962 -0.52062,-0.50969 -1.11992,-0.97614 -1.76966,-1.40608 -1.30522,-0.86367 -2.92563,-1.6531 -4.78553,-2.38385 -1.90201,-0.74729 -4.11433,-1.45633 -6.59971,-2.12838 -5.15723,-1.39453 -11.55648,-2.64754 -18.92757,-3.74775 -0.99722,-0.14885 -2.01191,-0.29485 -3.04342,-0.438 -13.54426,-1.87956 -32.39404,-3.59421 -57.65046,-4.63248 -24.38175,-1.00233 -54.34917,-1.35478 -89.98347,-0.62774 -17.3602,0.3541 -31.72384,1.16781 -43.56146,2.32682 -11.91486,1.16657 -21.20354,2.67633 -28.41184,4.3991 -7.3836,1.76466 -12.61499,3.75988 -16.26149,5.86063 -1.88775,1.08753 -3.37009,2.21444 -4.5066,3.36818 -1.17447,1.19229 -1.98083,2.41487 -2.47445,3.64418 -0.51433,1.28089 -0.67318,2.52945 -0.58924,3.7016 0.0876,1.22309 0.43804,2.35071 0.90726,3.35388 0.49918,1.06722 1.15161,2.03397 1.83317,2.8785 0.74152,0.91882 1.55172,1.73517 2.31822,2.42724 1.8414,1.66258 3.67097,2.82993 4.65895,3.40361 0.85145,0.49441 1.40495,0.74356 1.69576,0.85296 0.59919,0.22542 0.71901,0.0437 0.74313,10e-4 z"
                 id="path115" /><path
                 style="opacity:1;fill:#e6560f;fill-opacity:1;fill-rule:nonzero;stroke:none;stroke-width:2.0271;stroke-linecap:round;stroke-linejoin:round;stroke-miterlimit:0;stroke-dasharray:none;stroke-opacity:1"
                 d="m -887.43012,494.18594 v 0 c -0.0489,-0.16509 -0.44967,-0.70975 -4.10363,-0.007 -2.0267,0.38981 -6.37214,1.35168 -12.5041,3.26967 -3.98645,1.24691 -9.0905,3.01863 -14.19379,5.24493 -4.37817,1.90998 -9.16875,4.33415 -13.07805,7.18682 -1.83936,1.34221 -3.62114,2.87791 -5.09279,4.61774 -1.41882,1.67737 -2.68937,3.70943 -3.33334,6.10528 -0.31869,1.18564 -0.47991,2.44825 -0.42962,3.76904 0.0498,1.30749 0.30483,2.61492 0.76639,3.90075 0.45518,1.26805 1.09724,2.47681 1.89638,3.62124 0.79013,1.13152 1.73397,2.20068 2.80892,3.21199 2.11515,1.98992 4.81235,3.82599 8.06807,5.5389 3.23294,1.70094 7.10794,3.3282 11.68454,4.88566 9.08987,3.09338 21.13798,5.97497 36.76678,8.58047 31.8731,5.31377 66.13638,7.63182 99.14141,8.11301 20.03459,0.29209 39.55556,-0.0932 57.75376,-0.88791 13.23876,-0.57811 26.99914,-1.42455 41.11716,-2.55185 28.92861,-2.30991 57.35586,-5.64641 82.03774,-9.47006 11.16155,-1.72912 21.17863,-3.5015 29.58763,-5.20845 4.10755,-0.8338 7.81784,-1.64925 11.07762,-2.43315 3.22793,-0.77625 6.02725,-1.52469 8.34533,-2.23494 3.02447,-0.98793 6.40014,-2.26419 9.86656,-3.77241 3.50231,-1.52383 7.10584,-3.28796 10.57116,-5.24941 3.55466,-2.01202 6.94383,-4.22007 9.94678,-6.58936 3.13906,-2.47669 5.85292,-5.12676 7.91253,-7.92449 1.08355,-1.47189 1.98817,-2.98785 2.67625,-4.53975 0.72173,-1.62778 1.19955,-3.28229 1.40091,-4.94633 0.21392,-1.76777 0.10797,-3.48218 -0.29196,-5.12018 -0.42919,-1.75779 -1.17941,-3.35826 -2.14532,-4.80732 -1.06141,-1.59234 -2.38568,-3.00607 -3.843,-4.2643 -1.67811,-1.44885 -3.57079,-2.72395 -5.51002,-3.83988 -7.2025,-4.1447 -15.07229,-6.33189 -16.47764,-6.39488 -0.32012,-0.0143 -0.42584,0.10786 -0.51095,0.12945 0.0488,0.0733 0.0457,0.23435 0.28982,0.43927 1.07292,0.90059 8.57589,4.31218 14.43214,9.12908 1.59211,1.30955 3.00458,2.68282 4.13288,4.10388 0.98019,1.23451 1.69925,2.44681 2.15068,3.62032 0.40534,1.0537 0.58035,2.04155 0.56847,2.96036 -0.0109,0.84559 -0.17875,1.6622 -0.48881,2.47279 -0.29395,0.76847 -0.73197,1.57278 -1.33726,2.41411 -0.58142,0.80815 -1.31946,1.65338 -2.23395,2.53039 -1.75403,1.68213 -4.07604,3.40293 -6.94683,5.1137 -2.7325,1.62837 -5.84276,3.17605 -9.16924,4.59412 -3.2372,1.38 -6.59572,2.60138 -9.84717,3.61699 -3.22495,1.00733 -6.27761,1.79107 -8.89979,2.31463 -2.06024,0.46163 -4.63505,0.98897 -7.74511,1.57458 -3.12294,0.58803 -6.71293,1.22111 -10.73095,1.88606 -8.2353,1.36287 -18.06696,2.8264 -29.10124,4.28904 -24.51339,3.24935 -52.34175,6.15519 -81.04858,8.27122 -13.95668,1.02877 -27.49706,1.82622 -40.56172,2.41629 -17.93812,0.81017 -37.1461,1.33066 -56.83063,1.28031 -32.47306,-0.0831 -65.93114,-1.71963 -96.97695,-6.07553 -15.24923,-2.13946 -26.61122,-4.4501 -34.92491,-6.80429 -4.1731,-1.1817 -7.49162,-2.3501 -10.11188,-3.4754 -2.66032,-1.14251 -4.47981,-2.18873 -5.72559,-3.08059 -0.62059,-0.44428 -1.07286,-0.83168 -1.40643,-1.15076 -0.32794,-0.31369 -0.55584,-0.57615 -0.70178,-0.75344 -0.14371,-0.17459 -0.26603,-0.336 -0.34237,-0.46826 -0.0864,-0.14971 -0.15472,-0.32325 -0.17681,-0.57677 -0.0467,-0.53547 0.13361,-1.35528 0.74559,-2.44644 0.62642,-1.11688 1.60712,-2.34417 2.89845,-3.63036 2.77201,-2.76098 6.62344,-5.45459 10.55079,-7.83649 4.45338,-2.70093 9.17373,-5.10304 12.81279,-6.87775 5.71577,-2.7875 9.47827,-4.45575 11.49118,-5.42315 3.31432,-1.59284 3.38521,-2.153 3.3235,-2.36122 z"
                 id="path89"
                 transform="translate(1092.5901,39.925721)" /><path
                 style="opacity:1;fill:#e6560f;fill-opacity:1;fill-rule:nonzero;stroke:none;stroke-width:2.0271;stroke-linecap:round;stroke-linejoin:round;stroke-miterlimit:0;stroke-dasharray:none;stroke-opacity:1"
                 d="m -969.9353,527.1739 c -0.0604,0.0277 -0.13743,0.0488 -0.24381,0.07 -0.0798,0.0159 -0.17184,0.0313 -0.28477,0.0511 -0.17959,0.0316 -0.40383,0.0733 -0.70475,0.1446 -0.38314,0.0908 -0.8926,0.23038 -1.56288,0.45133 0.0347,-0.0114 -0.45658,0.15089 -0.42191,0.13946 -0.64887,0.21513 -1.59816,0.53306 -2.70263,0.92177 -0.91609,0.32241 -2.02953,0.72524 -3.25805,1.19639 -2.07084,0.79419 -4.71495,1.87635 -7.41782,3.19492 -2.41287,1.17709 -5.04342,2.62481 -7.41278,4.32382 -1.14277,0.81945 -2.2606,1.72268 -3.28258,2.71331 -1.00777,0.97685 -1.95608,2.07118 -2.74697,3.29247 -0.79175,1.22263 -1.44445,2.60186 -1.82185,4.13468 -0.3844,1.56101 -0.4654,3.21329 -0.1724,4.90796 0.2976,1.72092 0.9583,3.35625 1.904,4.87942 0.96979,1.56182 2.22883,2.9907 3.69133,4.29837 1.46404,1.30905 3.15894,2.52092 5.0333,3.64719 2.05989,1.23776 4.48142,2.46244 7.32183,3.67516 3.84478,1.63772 8.65378,2.99965 14.16145,4.15051 5.35288,1.11851 11.39464,2.04255 17.82442,2.80229 13.14622,1.55334 27.64972,2.38876 40.36393,2.7865 17.69763,0.55365 31.23844,0.26893 38.03988,-0.0597 4.88413,-0.23601 7.99626,-0.67086 9.71834,-1.10051 1.72487,-0.43035 2.00426,-0.83492 2.00566,-1.03246 10e-4,-0.20041 -0.27101,-0.6009 -1.97805,-1.07622 -1.72396,-0.48003 -4.76793,-0.99673 -9.63196,-1.47158 -7.07316,-0.69052 -20.30246,-1.65263 -37.65052,-3.29172 -12.57091,-1.18773 -26.76782,-2.73121 -39.47305,-4.77542 -6.21871,-1.00056 -11.91145,-2.09386 -16.85838,-3.28931 -5.14553,-1.24343 -9.18733,-2.52659 -12.1483,-3.81521 -2.47976,-1.0745 -4.47101,-2.08343 -6.07328,-3.01085 -1.46751,-0.84942 -2.6465,-1.64964 -3.58303,-2.39591 -0.93592,-0.74577 -1.56868,-1.38906 -2.00338,-1.91888 -0.40396,-0.49236 -0.64823,-0.9016 -0.79026,-1.19315 -0.14223,-0.29195 -0.24897,-0.59838 -0.2715,-0.98506 -0.0232,-0.39863 0.0419,-0.90652 0.2689,-1.54389 0.22769,-0.6392 0.59966,-1.35514 1.12847,-2.13682 0.53374,-0.78895 1.19877,-1.60315 1.97229,-2.4318 1.6194,-1.73481 3.61078,-3.42327 5.61437,-4.97441 2.1655,-1.67648 4.52341,-3.32392 6.26423,-4.54817 1.0989,-0.77282 1.985,-1.39845 2.81548,-2.0048 0.99473,-0.72627 1.72886,-1.29441 2.31893,-1.78603 0.12784,-0.10651 0.24638,-0.20734 0.35669,-0.30305 0.56743,-0.49231 0.95793,-0.91794 1.22285,-1.28568 0.20566,-0.28547 0.33173,-0.53085 0.40433,-0.73617 0.0457,-0.12914 0.0696,-0.24076 0.0793,-0.3351 0.013,-0.12569 6.4e-4,-0.21656 -0.0151,-0.27937 z"
                 id="path90"
                 transform="translate(1092.5901,39.925721)" /><path
                 style="opacity:1;fill:#e6560f;fill-opacity:1;fill-rule:nonzero;stroke:none;stroke-width:2.0271;stroke-linecap:round;stroke-linejoin:round;stroke-miterlimit:0;stroke-dasharray:none;stroke-opacity:1"
                 d="m -480.96387,490.77282 v 0 c -0.21161,0.34553 -0.3837,1.25161 1.60892,3.57616 1.95296,2.27828 4.23809,4.69605 6.19105,6.97433 2.08866,2.43078 4.60118,5.52914 6.76616,8.91481 1.98878,3.11013 3.61873,6.35852 4.48654,9.55958 0.41317,1.52402 0.63596,2.97303 0.671,4.34967 0.0346,1.35715 -0.11315,2.63844 -0.4358,3.87186 -0.32158,1.22934 -0.83695,2.4876 -1.60182,3.78729 -0.77993,1.32526 -1.85479,2.7534 -3.3324,4.27079 0,0 -0.006,0.007 -0.006,0.007 -2.79107,2.86447 -7.34681,6.39716 -15.10793,10.19705 -7.06353,3.45835 -16.68667,7.0851 -29.84724,10.57967 -54.37318,14.41499 -111.31607,22.8395 -152.29087,27.89873 -22.34115,2.7585 -44.54272,5.02939 -51.86927,5.79919 -9.04934,0.95081 -14.44017,1.69494 -17.56039,2.33586 -3.03989,0.62442 -3.50609,1.07644 -3.50039,1.31131 v 0 c 0.005,0.22574 0.49646,0.68009 3.585,1.08843 3.06677,0.40546 8.73377,0.75687 17.77388,0.71285 9.5962,-0.0467 27.63547,-0.39834 52.44477,-2.06317 41.18337,-2.76362 99.53039,-9.09208 155.09745,-22.58231 13.92885,-3.38098 24.64488,-7.11278 32.92065,-11.02536 9.10785,-4.30595 15.41206,-8.90465 19.71185,-13.60146 0,-10e-6 0.01,-0.0108 0.01,-0.0108 2.28533,-2.49822 4.11936,-5.15192 5.46647,-7.94489 1.33284,-2.76341 2.15046,-5.58419 2.48929,-8.40769 0.33718,-2.80972 0.18882,-5.52375 -0.31439,-8.0895 -0.50559,-2.5779 -1.36224,-4.97743 -2.42297,-7.1826 -2.17864,-4.52917 -5.28832,-8.37726 -8.33023,-11.43567 -3.38999,-3.40837 -6.95993,-6.10314 -9.86015,-8.01811 -3.94758,-2.60652 -7.03765,-4.04078 -8.74212,-4.70689 -2.98554,-1.16675 -3.82527,-0.45188 -4.00053,-0.1657 z"
                 id="path91"
                 transform="translate(1092.5901,39.925721)" /><path
                 style="opacity:1;fill:#e6560f;fill-opacity:1;fill-rule:nonzero;stroke:none;stroke-width:2.0271;stroke-linecap:round;stroke-linejoin:round;stroke-miterlimit:0;stroke-dasharray:none;stroke-opacity:1"
                 d="m -975.58704,491.03274 c -0.0207,-0.12099 -0.12772,-0.54552 -1.53426,-0.66188 -1.8514,-0.15318 -7.82459,-0.22532 -22.9856,2.16364 -12.1309,1.9115 -31.3395,5.72127 -49.8652,11.92504 -8.4421,2.82705 -16.8555,6.19382 -24.2803,10.15114 -3.6929,1.96824 -7.1946,4.1106 -10.3675,6.44593 -3.1934,2.35037 -6.1247,4.94803 -8.5999,7.8312 -2.5259,2.94234 -4.6285,6.24332 -6.0094,9.92685 -1.4378,3.83545 -2.0236,7.90853 -1.6257,12.10438 0.4131,4.35595 1.8521,8.50081 4.0191,12.35873 2.0786,3.70051 4.8269,7.14152 8.0126,10.33408 0.3252,0.32589 0.6575,0.65183 0.997,0.97784 5.3674,5.1442 11.8743,9.82074 19.4207,14.07261 7.2003,4.05697 15.3564,7.73258 24.3827,11.0598 17.3137,6.38205 37.7441,11.44928 60.40935,15.41639 44.78178,7.83817 96.60935,11.08104 144.44725,11.9557 53.26241,0.97385 100.63821,-0.98303 129.04606,-2.75186 26.89513,-1.67464 40.609,-3.30063 47.07572,-4.37553 8.29731,-1.37917 8.63936,-3.057 8.60905,-3.50396 -0.0327,-0.48165 -0.586,-2.00362 -8.94415,-2.44386 -7.71634,-0.40644 -18.7191,-0.34271 -47.07934,-0.30309 -27.2404,0.038 -76.57167,0.0523 -128.18727,-2.41177 -47.52055,-2.26862 -98.15866,-6.65016 -141.47387,-15.08299 -21.8931,-4.26227 -41.0113,-9.3852 -56.7975,-15.42823 -8.2023,-3.13988 -15.3217,-6.45833 -21.3928,-9.92902 -6.3677,-3.64032 -11.4314,-7.3619 -15.3687,-11.09775 -0.2422,-0.22915 -0.4767,-0.45528 -0.7037,-0.67841 -2.2546,-2.21607 -3.8607,-4.21357 -4.9664,-5.98409 -1.1258,-1.8028 -1.6959,-3.30971 -1.9541,-4.54629 -0.2432,-1.16471 -0.2711,-2.36735 0.037,-3.7188 0.3091,-1.35645 0.9797,-2.95624 2.2182,-4.80205 1.218,-1.81521 2.9106,-3.75563 5.1223,-5.79094 2.188,-2.0136 4.7949,-4.03833 7.7784,-6.05702 6.0362,-4.08426 13.2799,-7.91999 21.0003,-11.44733 16.5949,-7.58194 35.3902,-13.69443 46.67335,-17.29357 14.41303,-4.59752 20.01602,-6.47311 21.68166,-7.26553 1.26483,-0.60175 1.22662,-1.02307 1.20505,-1.14936 z"
                 id="path94"
                 transform="translate(1092.5901,39.925721)" /><path
                 style="opacity:1;fill:#e6560f;fill-opacity:1;fill-rule:nonzero;stroke:none;stroke-width:2.0271;stroke-linecap:round;stroke-linejoin:round;stroke-miterlimit:0;stroke-dasharray:none;stroke-opacity:1"
                 d="m -449.77141,475.19801 v 0 c -0.0549,0.15534 -0.15868,0.6525 1.84337,1.86981 1.99494,1.21299 7.22156,3.86204 18.38924,9.92333 9.47796,5.14419 26.01984,14.41633 39.61876,25.41487 6.05801,4.8996 11.60412,10.18946 15.79499,15.66522 2.01021,2.6265 3.65888,5.23176 4.89803,7.78999 1.21861,2.5158 2.00785,4.91698 2.38946,7.19867 0.37468,2.24024 0.35793,4.3681 -0.0267,6.43082 -0.38031,2.03973 -1.1476,4.16268 -2.42705,6.39562 -1.29001,2.25138 -3.13926,4.68416 -5.75688,7.29085 -2.63285,2.62186 -6.01355,5.38755 -10.30522,8.26589 -9.3737,5.96762 -21.17058,11.74614 -34.53136,17.32523 -3.34691,1.39758 -6.7592,2.76914 -10.21732,4.11558 -10.34475,4.02779 -22.54036,8.39515 -36.95225,12.96027 -32.74943,10.37374 -72.83546,20.43882 -117.91351,28.62348 -11.17106,2.01345 -24.002,3.84165 -37.87653,5.50348 -14.07149,1.68542 -29.11251,3.18736 -44.40239,4.5305 -32.15681,2.82482 -65.95127,4.98967 -93.90536,6.63239 -33.66004,1.97804 -60.1085,3.32623 -77.15028,4.38257 -11.61399,0.7199 -18.75389,1.27048 -23.51786,1.75879 -3.34191,0.34255 -5.27258,0.63184 -6.46532,0.8722 -0.7519,0.15153 -1.21186,0.2843 -1.50785,0.39306 -0.0801,0.0294 -0.15085,0.059 -0.2138,0.0885 -0.23804,0.1116 -0.37345,0.22698 -0.45693,0.32977 -0.0281,0.0346 -0.0508,0.0685 -0.0692,0.10085 -0.0215,0.0379 -0.0375,0.0744 -0.0492,0.10837 -0.014,0.0407 -0.0222,0.0792 -0.0252,0.11235 -0.002,0.0195 -0.002,0.0377 9e-5,0.0536 10e-4,0.009 0.003,0.0167 0.005,0.0239 0.002,0.008 0.006,0.0142 0.01,0.0193 0.006,0.003 0.0107,0.008 0.0154,0.0143 0.005,0.006 0.009,0.0119 0.0129,0.0188 0.007,0.0125 0.0149,0.0277 0.0224,0.0435 0.0132,0.0277 0.0271,0.0582 0.0459,0.0921 0.0154,0.0278 0.0339,0.0575 0.0571,0.0881 0.0199,0.0261 0.0434,0.0532 0.072,0.0805 0.0851,0.0813 0.21789,0.16904 0.45312,0.24759 0.0621,0.0208 0.13205,0.0411 0.21117,0.0608 0.29249,0.0727 0.74943,0.15804 1.49998,0.25104 1.18126,0.14638 3.1312,0.31707 6.46857,0.49425 4.64947,0.24685 12.08986,0.51117 23.56341,0.71499 16.6122,0.2951 43.69799,0.48204 77.38795,0.0704 28.25789,-0.34526 61.84418,-1.12807 94.50875,-2.68971 15.43671,-0.73801 30.68678,-1.65121 45.02371,-2.77573 14.11612,-1.10721 27.35487,-2.41981 39.03723,-3.97498 45.90008,-6.02565 87.82771,-14.7446 121.73495,-24.65415 15.01676,-4.38872 27.90854,-8.84519 38.81579,-13.21372 3.65413,-1.46354 7.2706,-2.99083 10.82294,-4.57954 14.05053,-6.28379 27.0042,-13.48595 37.34733,-21.46736 5.07756,-3.7537 9.37301,-7.62327 12.88274,-11.6177 3.50305,-3.98683 6.23455,-8.11146 8.16103,-12.36411 1.93653,-4.27487 3.01896,-8.59156 3.29347,-12.88524 0.2759,-4.31538 -0.27413,-8.44513 -1.43082,-12.33054 -1.16481,-3.91272 -2.93516,-7.549 -5.06668,-10.89765 -2.16596,-3.40274 -4.74304,-6.56867 -7.53746,-9.49589 -5.77086,-6.04512 -12.75364,-11.36745 -19.72323,-15.89333 -15.89747,-10.32342 -33.5552,-17.70977 -43.97162,-21.57648 -12.13885,-4.50609 -17.93386,-5.75419 -20.25649,-6.16364 -2.33208,-0.41111 -2.58127,0.0856 -2.63026,0.22424 z"
                 id="path95"
                 transform="translate(1092.5901,39.925721)" /><path
                 style="display:inline;opacity:1;mix-blend-mode:normal;fill:url(#radialGradient117);stroke:none;stroke-width:2.0271;stroke-linecap:round;stroke-linejoin:round;stroke-miterlimit:0;stroke-dasharray:none;stroke-opacity:1;filter:url(#filter117)"
                 d="m 272.00504,548.6784 c 13.77452,-9.90565 196.34588,-18.31648 197.45577,3.58163 0.56673,11.18134 -18.17979,10.04055 -27.2121,12.69566 -24.56318,7.22054 -166.08969,22.2079 -180.92701,-4.05743 -5.45146,-9.65029 10.68334,-12.21986 10.68334,-12.21986 z"
                 id="path116" /></g><g
               id="g255"
               style="stroke-width:1.3514"><g
                 id="g55"
                 transform="translate(-54.665297,-150.56633)"
                 style="stroke-width:1.3514"><path
                   id="path48"
                   style="fill:#b200b2;fill-opacity:1;stroke-width:2.62413;stroke-linecap:round;stroke-linejoin:round;stroke-miterlimit:0;stroke-dasharray:none"
                   d="m 433.08789,112.98633 -0.0549,0.16954 -0.0549,0.16954 -0.0549,0.16954 -0.0549,0.16955 c -0.0294,0.0908 -9.20652,19.18355 -16.34983,30.20489 -7.14331,11.02134 -20.85213,25.976 -34.05867,45.98319 -17.63535,26.7166 -14.90645,88.19308 50.62811,92.84273 v -84.85449 -42.42724 z m 0,0 0.0549,0.16954 0.0549,0.16954 0.0549,0.16954 0.0549,0.16955 c 0.0294,0.0908 9.20652,19.18355 16.34983,30.20489 7.14331,11.02134 20.85213,25.976 34.05867,45.98319 17.63535,26.7166 14.90645,88.19308 -50.62811,92.84273 v -84.85449 -42.42724 z"
                   transform="matrix(0.99843096,0,0,1.0625152,-24.114143,-5.9554558)" /><path
                   id="path44"
                   style="fill:#590059;fill-opacity:1;stroke-width:2.70278;stroke-linecap:round;stroke-linejoin:round;stroke-miterlimit:0;stroke-dasharray:none"
                   d="m 463.7956,206.19385 c 7.68575,31.63448 -4.37369,66.27016 -54.7416,76.78059 -31.65354,2.16467 -51.4698,-14.6151 -58.57676,-34.23566 5.39005,22.62589 22.41017,42.99935 57.83202,45.67383 58.33886,-4.40479 66.81116,-56.78956 55.48634,-88.21876 z" /><path
                   id="path52"
                   style="fill:#ffffff;fill-opacity:1;stroke-width:14.8471;stroke-linecap:round;stroke-linejoin:round;stroke-miterlimit:0;stroke-dasharray:none"
                   d="m 433.0831,112.98765 -0.0534,0.16694 -0.0447,0.17205 -0.0534,0.16695 -0.0703,0.17025 c -0.0294,0.0908 -9.19263,19.18538 -16.33594,30.20671 -7.1433,11.02133 -20.15699,38.08473 -33.36351,58.0919 -17.63534,26.71658 -15.60048,76.08398 49.93401,80.73362 65.53449,-4.64964 67.54941,-54.01592 49.91408,-80.7325 -13.20653,-20.00717 -26.20909,-47.07141 -33.35239,-58.09273 -7.14331,-11.02133 -16.31531,-30.11593 -16.34471,-30.20673 l -0.066,-0.17084 -0.0404,-0.16904 -0.066,-0.17084 z m -10.06678,182.67408 c -26.16363,4.98613 -25.42944,17.65348 -10.50805,33.18548 10.72082,11.1597 43.20696,24.03656 65.25849,26.19909 22.05152,2.16254 57.0262,-3.04694 39.75087,-15.29724 -34.55058,-24.50054 -51.09365,-48.99929 -85.52767,-45.3841 -3.29658,0.3461 -6.26705,0.78097 -8.97364,1.29677 z"
                   transform="matrix(0.08659805,0.05605851,-0.14778986,0.2870115,372.26973,107.06466)" /></g><g
                 id="g254"
                 style="stroke-width:1.3514"><circle
                   style="opacity:1;fill:#7f007f;fill-opacity:1;stroke:none;stroke-width:2.0271;stroke-linecap:round;stroke-linejoin:round;stroke-miterlimit:0;stroke-dasharray:none;stroke-opacity:1"
                   id="path261"
                   cx="623.21954"
                   cy="392.87784"
                   r="36.702202" /><path
                   id="circle304"
                   style="opacity:1;fill:#590059;fill-opacity:1;stroke:none;stroke-width:2.0271;stroke-linecap:round;stroke-linejoin:round;stroke-miterlimit:0;stroke-dasharray:none;stroke-opacity:1"
                   d="m 648.97058,366.73635 c 0.0102,0.0409 4.17876,16.71485 3.8536,19.94898 -0.32555,3.23809 0.0539,14.34254 -11.51065,25.79802 -11.5646,11.45548 -41.17019,7.96323 -41.17019,7.96323 0,0 0.10372,0.54785 0.19795,1.03467 a 36.702202,36.702202 0 0 0 22.87879,8.09784 36.702202,36.702202 0 0 0 36.70159,-36.7016 36.702202,36.702202 0 0 0 -10.95109,-26.14114 z" /></g><g
                 id="g253"
                 style="stroke-width:1.3514"><path
                   id="path62"
                   style="opacity:1;fill:#7f007f;stroke-width:2.0271;stroke-linecap:round;stroke-linejoin:round;stroke-miterlimit:0"
                   d="m 147.3666,463.28555 a 24.067707,24.69973 0 0 1 -24.0677,24.69973 24.067707,24.69973 0 0 1 -24.06771,-24.69973 24.067707,24.69973 0 0 1 24.06771,-24.69973 24.067707,24.69973 0 0 1 24.0677,24.69973 z" /><path
                   style="opacity:1;fill:#ffffff;fill-opacity:1;stroke:none;stroke-width:2.0271;stroke-linecap:round;stroke-linejoin:round;stroke-miterlimit:0;stroke-dasharray:none;stroke-opacity:1"
                   d="m 130.90758,446.64993 c 2.47865,-2.22666 10.4786,5.50452 7.58383,7.35474 -0.57466,0.3673 -1.25977,0.11137 -1.79254,-0.1897 -0.57793,-0.32659 -5.45336,-4.56758 -5.86428,-5.39932 -0.27774,-0.56216 0.073,-1.76572 0.073,-1.76572 z"
                   id="path119" /></g><g
                 id="g251"
                 transform="translate(15.88612)"
                 style="stroke-width:1.3514"><path
                   id="ellipse54"
                   style="fill:#970097;stroke-width:2.7028;stroke-linecap:round;stroke-linejoin:round;stroke-miterlimit:0"
                   d="m 366.45462,240.97079 a 28.711826,27.601023 0 0 1 -28.71182,27.60103 28.711826,27.601023 0 0 1 -28.71183,-27.60103 28.711826,27.601023 0 0 1 28.71183,-27.60102 28.711826,27.601023 0 0 1 28.71182,27.60102 z" /><path
                   id="path5"
                   style="fill:#590059;fill-opacity:1;stroke:none;stroke-width:2.7028;stroke-linecap:round;stroke-linejoin:round;stroke-miterlimit:0"
                   d="m 321.79297,218.06055 c -7.96225,5.11374 -12.74848,13.70683 -12.76172,22.91211 2e-4,3.69211 0.76049,7.21084 2.12891,10.42968 4.28103,10.07003 14.56656,17.16957 26.58203,17.16993 3.14868,-0.007 6.24623,-0.51273 9.17773,-1.47071 5.9e-4,-1.9e-4 0.001,1.9e-4 0.002,0 l 0.004,-0.002 c 3.72784,-1.21907 7.187,-3.17031 10.14063,-5.76953 -0.90398,0.58375 -1.83853,1.11531 -2.79883,1.59375 l 2.79883,-1.59375 c 0,0 -17.4091,2.18944 -26.73438,-2.22656 -7.92837,-3.7545 -13.62024,-11.88493 -15.43359,-19.42579 -0.0191,-0.45856 -0.0293,-0.92081 -0.0293,-1.38476 0.0168,-7.75216 0.95924,-15.0152 6.92383,-20.23242 z" /><path
                   style="opacity:1;fill:#ffffff;fill-opacity:1;stroke:none;stroke-width:2.0271;stroke-linecap:round;stroke-linejoin:round;stroke-miterlimit:0;stroke-dasharray:none;stroke-opacity:1"
                   d="m 347.64756,219.27307 c 10.75628,3.64826 15.08122,12.681 14.13566,18.6382 -0.94553,5.95718 -7.16159,8.83882 -7.10007,1.59923 0.0244,-2.87691 -1.73446,-7.93624 -3.49947,-12.27638 -1.76501,-4.34014 -3.53612,-7.96105 -3.53612,-7.96105 z"
                   id="path230" /></g><g
                 id="g252"
                 style="stroke-width:1.3514"><path
                   style="display:inline;opacity:1;fill:#7f007f;fill-opacity:1;stroke:none;stroke-width:2.0271;stroke-linecap:round;stroke-linejoin:round;stroke-miterlimit:0;stroke-dasharray:none;stroke-opacity:1"
                   d="M 427.74104,544.92096 C 248.52498,633.85109 259.59603,432.47454 202.33014,384.39455 172.00698,358.93547 52.418503,377.61496 69.981903,309.29346 c 5.8008,-22.56508 19.7038,-41.1812 43.292857,-46.35012 105.74267,-23.17074 139.07102,271.4665 223.87335,192.45744 17.7138,-16.50367 13.8017,-62.40303 29.00714,-79.63154 29.64617,-33.59057 4.8738,48.58033 22.8571,48.87672 26.45223,0.43598 51.42988,-151.44312 74.77356,-195.14255 11.71442,-21.92943 34.28033,-57.25822 68.29926,-79.98099 34.01894,-22.72277 80.28289,-32.3977 97.89544,-2.91373 45.31081,75.85178 -52.91816,82.88397 -158.59298,213.83052 -15.91657,19.72295 -22.32259,46.39073 -29.30017,70.52451 -24.77533,85.69189 84.69609,-9.81763 108.18347,8.49335 20.03907,15.62264 -27.61458,53.75659 -61.42182,73.3992 -36.48606,21.19905 -43.45787,23.30635 -61.10807,32.06469 z"
                   id="path64" /><path
                   id="path249"
                   style="display:inline;opacity:1;fill:#590059;fill-opacity:1;stroke:none;stroke-width:2.0271;stroke-linecap:round;stroke-linejoin:round;stroke-miterlimit:0;stroke-dasharray:none;stroke-opacity:1"
                   d="m 587.76172,248.84961 c -14.74169,3.55014 -54.27589,16.25013 -97.98828,57.77148 -16.66422,15.82895 -26.7976,50.93487 -32.48242,77.7461 3.76606,-8.58985 8.28527,-16.72777 14.0957,-23.92774 43.39902,-53.77772 84.91446,-86.26131 116.375,-111.58984 z M 186.79297,372.06055 c -6.35773,0.0218 -10.86004,0.65136 -13.15625,1.01172 12.04476,2.66028 22.36555,6.00948 28.69336,11.32226 9.78615,8.21638 17.51606,21.09664 24.60156,36.05274 0.034,-3.7971 0.0196,-8.24261 -0.18555,-12.51758 -0.47044,-9.80266 -5.01727,-19.4535 -16.22265,-29.5918 -5.6027,-5.06914 -15.36648,-6.30607 -23.73047,-6.27734 z" /></g></g></g><circle
             style="opacity:1;fill:#ffffff;fill-opacity:1;stroke:none;stroke-width:1.5;stroke-linecap:round;stroke-linejoin:round;stroke-miterlimit:0;stroke-dasharray:none;stroke-opacity:1"
             id="path260"
             cx="1071.1375"
             cy="449.96747"
             r="14.09525" /><circle
             style="opacity:1;fill:#7f007f;fill-opacity:1;stroke:none;stroke-width:1.5;stroke-linecap:round;stroke-linejoin:round;stroke-miterlimit:0;stroke-dasharray:none;stroke-opacity:1"
             id="circle262"
             cx="995.52228"
             cy="376.39236"
             r="7.4880953" /></g><path
           style="opacity:1;fill:#ffffff;fill-opacity:1;stroke:none;stroke-width:1.5;stroke-linecap:round;stroke-linejoin:round;stroke-miterlimit:0;stroke-dasharray:none;stroke-opacity:1"
           d="m 1211.7242,364.74346 c 0,0 -2.2275,2.87213 -2.3329,7.61103 -0.091,4.10786 1.5289,5.3902 1.5289,5.3902 0,0 1.5127,1.77667 2.6381,0.31557 1.6464,-2.13751 -1.2836,-6.73734 -0.148,-10.42018 0.8354,-2.70924 2.4232,-6.43263 1.9263,-6.34325 -1.3445,0.24188 -3.4,2.91661 -3.6124,3.4466 -0.4036,1.0069 0,3e-5 0,3e-5 z"
           id="path303" /></g></g></g></svg>
